<svg width="40" height="40" viewBox="0 0 40 40" fill="none" xmlns="http://www.w3.org/2000/svg">
<rect width="40" height="40" rx="4" fill="#BBDB18"/>
<path d="M26.67 26.67L28.89 25.56V22.78M22.22 17.78L20 18.89L22.22 17.78ZM20 18.89L17.78 17.78L20 18.89ZM20 18.89V21.67V18.89ZM28.89 14.44L26.67 15.55L28.89 14.44ZM28.89 14.44L26.67 13.33L28.89 14.44ZM28.89 14.44V17.22V14.44ZM22.22 11.11L20 10L17.78 11.11H22.22ZM11.11 14.44L13.33 13.33L11.11 14.44ZM11.11 14.44L13.33 15.55L11.11 14.44ZM11.11 14.44V17.22V14.44ZM20 30L17.78 28.89L20 30ZM20 30L22.22 28.89L20 30ZM20 30V27.22V30ZM13.33 26.67L11.11 25.56V22.78L13.33 26.67Z" stroke="#292D32" stroke-width="1.5" stroke-linecap="round" stroke-linejoin="round"/>
</svg>
