<svg width="40" height="40" viewBox="0 0 40 40" fill="none" xmlns="http://www.w3.org/2000/svg">
<rect width="40" height="40" rx="4" fill="#59B7E9"/>
<path d="M23 30.75H17C11.57 30.75 9.25 28.43 9.25 23V17C9.25 11.57 11.57 9.25 17 9.25H23C28.43 9.25 30.75 11.57 30.75 17V23C30.75 28.43 28.43 30.75 23 30.75ZM17 10.75C12.39 10.75 10.75 12.39 10.75 17V23C10.75 27.61 12.39 29.25 17 29.25H23C27.61 29.25 29.25 27.61 29.25 23V17C29.25 12.39 27.61 10.75 23 10.75H17Z" fill="#292D32"/>
<path d="M17.6002 23.78C17.4102 23.78 17.2202 23.71 17.0702 23.56L14.5802 21.07C13.9902 20.48 13.9902 19.53 14.5802 18.94L17.0702 16.45C17.3602 16.16 17.8402 16.16 18.1302 16.45C18.4202 16.74 18.4202 17.22 18.1302 17.51L15.6402 20L18.1302 22.5C18.4202 22.79 18.4202 23.27 18.1302 23.56C17.9802 23.7 17.7902 23.78 17.6002 23.78Z" fill="#292D32"/>
<path d="M22.3998 23.78C22.2098 23.78 22.0198 23.71 21.8698 23.56C21.5798 23.27 21.5798 22.79 21.8698 22.5L24.3598 20L21.8698 17.5C21.5798 17.21 21.5798 16.73 21.8698 16.44C22.1598 16.15 22.6398 16.15 22.9298 16.44L25.4198 18.93C26.0098 19.52 26.0098 20.47 25.4198 21.06L22.9298 23.55C22.7898 23.7 22.5898 23.78 22.3998 23.78Z" fill="#292D32"/>
</svg>
