<svg width="40" height="40" viewBox="0 0 40 40" fill="none" xmlns="http://www.w3.org/2000/svg">
<rect width="40" height="40" rx="4" fill="#59B7E9"/>
<g clip-path="url(#clip0_326_73)">
<path d="M25.2499 14.6356H21.4999L17.2193 18.7878C17.1397 18.8673 17.0791 18.9638 17.0418 19.0699C17.0046 19.1761 16.9917 19.2893 17.0041 19.4011C17.0165 19.5129 17.0539 19.6205 17.1136 19.7159C17.1732 19.8113 17.2536 19.8921 17.3487 19.9522C18.9903 21.0012 21.2187 20.9291 22.9999 19.1356L26.7499 22.1356L28.2499 20.6356" stroke="#292D32" stroke-linecap="round" stroke-linejoin="round"/>
<path d="M26.75 22.1356L23 25.8856L17 24.3856L11.75 20.6356" stroke="#292D32" stroke-linecap="round" stroke-linejoin="round"/>
<path d="M13.25 25.8856L15.5 27.3856L18.5 28.1356" stroke="#292D32" stroke-linecap="round" stroke-linejoin="round"/>
<path d="M14.75 14.6356L20 13.1356L25.25 14.6356" stroke="#292D32" stroke-linecap="round" stroke-linejoin="round"/>
<path d="M11.4145 13.8069L9.08574 18.4644C9.0416 18.5525 9.01527 18.6485 9.00825 18.7468C9.00123 18.8451 9.01366 18.9439 9.04484 19.0374C9.07601 19.1309 9.12531 19.2173 9.18991 19.2918C9.25452 19.3662 9.33317 19.4272 9.42137 19.4712L11.7501 20.6356L14.7501 14.6356L12.4214 13.4712C12.3332 13.4271 12.2373 13.4008 12.1389 13.3937C12.0406 13.3867 11.9419 13.3992 11.8484 13.4303C11.7548 13.4615 11.6684 13.5108 11.5939 13.5754C11.5195 13.64 11.4585 13.7187 11.4145 13.8069Z" stroke="#292D32" stroke-linecap="round" stroke-linejoin="round"/>
<path d="M27.5787 13.4712L25.25 14.6356L28.25 20.6356L30.5787 19.4712C30.6669 19.4272 30.7456 19.3662 30.8102 19.2918C30.8748 19.2173 30.9241 19.1309 30.9553 19.0374C30.9865 18.9439 30.9989 18.8451 30.9919 18.7468C30.9848 18.6485 30.9585 18.5525 30.9144 18.4644L28.5856 13.8069C28.5416 13.7187 28.4806 13.64 28.4062 13.5754C28.3317 13.5108 28.2453 13.4615 28.1518 13.4303C28.0582 13.3992 27.9595 13.3867 27.8612 13.3937C27.7629 13.4008 27.6669 13.4271 27.5787 13.4712Z" stroke="#292D32" stroke-linecap="round" stroke-linejoin="round"/>
</g>
<defs>
<clipPath id="clip0_326_73">
<rect width="24" height="24" fill="white" transform="translate(8 7.88562)"/>
</clipPath>
</defs>
</svg>
