<svg width="40" height="41" viewBox="0 0 40 41" fill="none" xmlns="http://www.w3.org/2000/svg">
<rect y="0.11438" width="40" height="40" rx="4" fill="#BBDB18"/>
<path d="M22.7 30.8644H17.3C12.36 30.8644 10.26 28.7544 10.26 23.8244V19.3344C10.26 18.9244 10.6 18.5844 11.01 18.5844C11.42 18.5844 11.76 18.9244 11.76 19.3344V23.8244C11.76 27.9144 13.21 29.3644 17.3 29.3644H22.69C26.78 29.3644 28.23 27.9144 28.23 23.8244V19.3344C28.23 18.9244 28.57 18.5844 28.98 18.5844C29.39 18.5844 29.73 18.9244 29.73 19.3344V23.8244C29.74 28.7544 27.63 30.8644 22.7 30.8644Z" fill="#292D32"/>
<path d="M20 20.8644C18.9 20.8644 17.9 20.4344 17.19 19.6444C16.48 18.8544 16.15 17.8244 16.26 16.7244L16.93 10.0444C16.97 9.66438 17.29 9.36438 17.68 9.36438H22.35C22.74 9.36438 23.06 9.65438 23.1 10.0444L23.77 16.7244C23.88 17.8244 23.55 18.8544 22.84 19.6444C22.1 20.4344 21.1 20.8644 20 20.8644ZM18.35 10.8644L17.75 16.8744C17.68 17.5444 17.88 18.1744 18.3 18.6344C19.15 19.5744 20.85 19.5744 21.7 18.6344C22.12 18.1644 22.32 17.5344 22.25 16.8744L21.65 10.8644H18.35Z" fill="#292D32"/>
<path d="M26.31 20.8644C24.28 20.8644 22.47 19.2244 22.26 17.2044L21.56 10.1944C21.54 9.98438 21.61 9.77438 21.75 9.61438C21.89 9.45438 22.09 9.36438 22.31 9.36438H25.36C28.3 9.36438 29.67 10.5944 30.08 13.6144L30.36 16.3944C30.48 17.5744 30.12 18.6944 29.35 19.5444C28.58 20.3944 27.5 20.8644 26.31 20.8644ZM23.14 10.8644L23.76 17.0544C23.89 18.3044 25.05 19.3644 26.31 19.3644C27.07 19.3644 27.75 19.0744 28.24 18.5444C28.72 18.0144 28.94 17.3044 28.87 16.5444L28.59 13.7944C28.28 11.5344 27.55 10.8644 25.36 10.8644H23.14Z" fill="#292D32"/>
<path d="M13.64 20.8644C12.45 20.8644 11.37 20.3944 10.6 19.5444C9.83002 18.6944 9.47002 17.5744 9.59002 16.3944L9.86002 13.6444C10.28 10.5944 11.65 9.36438 14.59 9.36438H17.64C17.85 9.36438 18.05 9.45438 18.2 9.61438C18.35 9.77438 18.41 9.98438 18.39 10.1944L17.69 17.2044C17.48 19.2244 15.67 20.8644 13.64 20.8644ZM14.59 10.8644C12.4 10.8644 11.67 11.5244 11.35 13.8144L11.08 16.5444C11 17.3044 11.23 18.0144 11.71 18.5444C12.19 19.0744 12.87 19.3644 13.64 19.3644C14.9 19.3644 16.07 18.3044 16.19 17.0544L16.81 10.8644H14.59Z" fill="#292D32"/>
<path d="M22.5 30.8644H17.5C17.09 30.8644 16.75 30.5244 16.75 30.1144V27.6144C16.75 25.5144 17.9 24.3644 20 24.3644C22.1 24.3644 23.25 25.5144 23.25 27.6144V30.1144C23.25 30.5244 22.91 30.8644 22.5 30.8644ZM18.25 29.3644H21.75V27.6144C21.75 26.3544 21.26 25.8644 20 25.8644C18.74 25.8644 18.25 26.3544 18.25 27.6144V29.3644Z" fill="#292D32"/>
</svg>
