<svg width="40" height="41" viewBox="0 0 40 41" fill="none" xmlns="http://www.w3.org/2000/svg">
<rect y="0.11438" width="40" height="40" rx="4" fill="#BBDB18"/>
<g clip-path="url(#clip0_98_380)">
<path d="M25.25 14.75H21.5L17.2194 18.9022C17.1398 18.9817 17.0791 19.0781 17.0419 19.1843C17.0046 19.2905 16.9917 19.4037 17.0042 19.5155C17.0166 19.6273 17.054 19.7349 17.1137 19.8303C17.1733 19.9257 17.2537 20.0064 17.3488 20.0666C18.9903 21.1156 21.2188 21.0434 23 19.25L26.75 22.25L28.25 20.75" stroke="#292D32" stroke-linecap="round" stroke-linejoin="round"/>
<path d="M26.75 22.25L23 26L17 24.5L11.75 20.75" stroke="#292D32" stroke-linecap="round" stroke-linejoin="round"/>
<path d="M13.25 26L15.5 27.5L18.5 28.25" stroke="#292D32" stroke-linecap="round" stroke-linejoin="round"/>
<path d="M14.75 14.75L20 13.25L25.25 14.75" stroke="#292D32" stroke-linecap="round" stroke-linejoin="round"/>
<path d="M11.4144 13.9212L9.08562 18.5787C9.04148 18.6669 9.01515 18.7629 9.00813 18.8612C9.00111 18.9595 9.01354 19.0582 9.04471 19.1518C9.07588 19.2453 9.12518 19.3317 9.18979 19.4062C9.2544 19.4806 9.33305 19.5416 9.42125 19.5856L11.75 20.75L14.75 14.75L12.4212 13.5856C12.3331 13.5415 12.2371 13.5151 12.1388 13.5081C12.0405 13.5011 11.9417 13.5135 11.8482 13.5447C11.7547 13.5759 11.6683 13.6252 11.5938 13.6898C11.5194 13.7544 11.4584 13.8331 11.4144 13.9212Z" stroke="#292D32" stroke-linecap="round" stroke-linejoin="round"/>
<path d="M27.5787 13.5856L25.25 14.75L28.25 20.75L30.5787 19.5856C30.6669 19.5416 30.7456 19.4806 30.8102 19.4062C30.8748 19.3317 30.9241 19.2453 30.9553 19.1518C30.9865 19.0582 30.9989 18.9595 30.9919 18.8612C30.9848 18.7629 30.9585 18.6669 30.9144 18.5787L28.5856 13.9212C28.5416 13.8331 28.4806 13.7544 28.4062 13.6898C28.3317 13.6252 28.2453 13.5759 28.1518 13.5447C28.0582 13.5135 27.9595 13.5011 27.8612 13.5081C27.7629 13.5151 27.6669 13.5415 27.5787 13.5856Z" stroke="#292D32" stroke-linecap="round" stroke-linejoin="round"/>
</g>
<defs>
<clipPath id="clip0_98_380">
<rect width="24" height="24" fill="white" transform="translate(8 8)"/>
</clipPath>
</defs>
</svg>
