<svg width="40" height="41" viewBox="0 0 40 41" fill="none" xmlns="http://www.w3.org/2000/svg">
<rect y="0.11438" width="40" height="40" rx="4" fill="#BBDB18"/>
<path d="M23.58 20C23.58 21.98 21.98 23.58 20 23.58C18.02 23.58 16.42 21.98 16.42 20C16.42 18.02 18.02 16.42 20 16.42C21.98 16.42 23.58 18.02 23.58 20Z" stroke="#292D32" stroke-width="1.5" stroke-linecap="round" stroke-linejoin="round"/>
<path d="M20 28.27C23.53 28.27 26.82 26.19 29.11 22.59C30.01 21.18 30.01 18.81 29.11 17.4C26.82 13.8 23.53 11.72 20 11.72C16.47 11.72 13.18 13.8 10.89 17.4C9.99 18.81 9.99 21.18 10.89 22.59C13.18 26.19 16.47 28.27 20 28.27Z" stroke="#292D32" stroke-width="1.5" stroke-linecap="round" stroke-linejoin="round"/>
</svg>
