<svg width="40" height="40" viewBox="0 0 40 40" fill="none" xmlns="http://www.w3.org/2000/svg">
<rect width="40" height="40" rx="4" fill="#59B7E9"/>
<path d="M14.8799 26.9C14.4699 26.9 14.1299 26.56 14.1299 26.15V24.08C14.1299 23.67 14.4699 23.33 14.8799 23.33C15.2899 23.33 15.6299 23.67 15.6299 24.08V26.15C15.6299 26.57 15.2899 26.9 14.8799 26.9Z" fill="#292D32"/>
<path d="M20 26.9C19.59 26.9 19.25 26.56 19.25 26.15V22C19.25 21.59 19.59 21.25 20 21.25C20.41 21.25 20.75 21.59 20.75 22V26.15C20.75 26.57 20.41 26.9 20 26.9Z" fill="#292D32"/>
<path d="M25.1201 26.9001C24.7101 26.9001 24.3701 26.5601 24.3701 26.1501V19.9301C24.3701 19.5201 24.7101 19.1801 25.1201 19.1801C25.5301 19.1801 25.8701 19.5201 25.8701 19.9301V26.1501C25.8701 26.5701 25.5401 26.9001 25.1201 26.9001Z" fill="#292D32"/>
<path d="M14.8801 21.18C14.5401 21.18 14.2401 20.95 14.1501 20.61C14.0501 20.21 14.2901 19.8 14.7001 19.7C18.3801 18.78 21.6201 16.77 24.0901 13.9L24.5501 13.36C24.8201 13.05 25.2901 13.01 25.6101 13.28C25.9201 13.55 25.9601 14.02 25.6901 14.34L25.2301 14.88C22.5601 18 19.0401 20.17 15.0601 21.16C15.0001 21.18 14.9401 21.18 14.8801 21.18Z" fill="#292D32"/>
<path d="M25.1199 17.52C24.7099 17.52 24.3699 17.18 24.3699 16.77V14.6H22.1899C21.7799 14.6 21.4399 14.26 21.4399 13.85C21.4399 13.44 21.7799 13.1 22.1899 13.1H25.1199C25.5299 13.1 25.8699 13.44 25.8699 13.85V16.78C25.8699 17.19 25.5399 17.52 25.1199 17.52Z" fill="#292D32"/>
<path d="M23 30.75H17C11.57 30.75 9.25 28.43 9.25 23V17C9.25 11.57 11.57 9.25 17 9.25H23C28.43 9.25 30.75 11.57 30.75 17V23C30.75 28.43 28.43 30.75 23 30.75ZM17 10.75C12.39 10.75 10.75 12.39 10.75 17V23C10.75 27.61 12.39 29.25 17 29.25H23C27.61 29.25 29.25 27.61 29.25 23V17C29.25 12.39 27.61 10.75 23 10.75H17Z" fill="#292D32"/>
</svg>
