<svg id="Layer_1" data-name="Layer 1" xmlns="http://www.w3.org/2000/svg" xmlns:xlink="http://www.w3.org/1999/xlink" viewBox="0 0 157.12 146.59"><defs><style>.cls-1{fill:#08003f;}.cls-2{fill:#717ebc;}.cls-3{fill:url(#linear-gradient);}.cls-4{fill:url(#linear-gradient-2);}.cls-5{fill:url(#linear-gradient-3);}</style><linearGradient id="linear-gradient" x1="26.34" y1="72.28" x2="87.8" y2="72.28" gradientUnits="userSpaceOnUse"><stop offset="0.22" stop-color="#b562df"/><stop offset="0.36" stop-color="#cc44e8"/><stop offset="0.53" stop-color="#e226f2"/><stop offset="0.69" stop-color="#f211f9"/><stop offset="0.85" stop-color="#fc04fd"/><stop offset="1" stop-color="#ff00fe"/></linearGradient><linearGradient id="linear-gradient-2" x1="47.22" y1="72.51" x2="145.6" y2="72.51" xlink:href="#linear-gradient"/><linearGradient id="linear-gradient-3" x1="33.15" y1="84.5" x2="34.77" y2="53.88" gradientUnits="userSpaceOnUse"><stop offset="0" stop-color="#01b6f7"/><stop offset="0.13" stop-color="#08b3f6"/><stop offset="0.31" stop-color="#1aabf3"/><stop offset="0.52" stop-color="#399eef"/><stop offset="0.76" stop-color="#638ce9"/><stop offset="1" stop-color="#9776e2"/></linearGradient></defs><title>full color favicon dark bg</title><rect class="cls-1" x="-2.17" y="-1.36" width="161.11" height="151.15"/><polygon class="cls-2" points="40.76 39.08 40.76 39.13 26.26 39.13 26.36 25 40.76 39.08"/><path class="cls-3" d="M54.26,91.39,39.18,106.3l0,13.41L80.66,78.63h0l.82-.82,6.29-6.22L69.24,53.25l-7-6.84-7.37-7.29L40.43,24.86H26.34V25L40.75,39.09l0,0,7.47,7.29,7,6.84,19,18.56-.23.25Zm-14-65.88-.1-.1h.1Z"/><polygon class="cls-4" points="97.46 72.56 97.38 72.46 97.46 72.38 103.43 66.49 142.27 28.14 145.58 24.88 134.06 24.98 121.54 24.98 93.87 52.28 93.82 52.35 73.05 31.85 66.13 24.98 48.51 24.98 93.4 69.87 95.61 67.63 102.43 60.84 137.34 25.9 142.92 25.9 102.61 65.69 96.64 71.59 95.81 72.41 95.91 72.51 95.81 72.58 96.64 73.38 141.45 117.64 142.97 119.06 135.87 119.06 135.77 118.96 91.71 75.49 84.69 82.48 47.22 119.98 65.36 119.98 71.75 113.44 93.82 91.62 93.85 91.62 122.56 119.98 122.74 120.13 133.26 120.13 137.14 120.11 145.6 120.06 97.46 72.56"/><polygon class="cls-5" points="26.22 46.4 40.71 46.4 40.67 53.26 40.39 105.11 40.39 105.93 40.3 118.51 40.3 118.55 39.71 119.1 39.34 119.47 39.11 119.7 38.75 120.02 26.58 120.11 25.71 120.11 25.71 119.56 26.17 53.26 26.22 46.4"/></svg>